HIERARCHY
ROOT Hips
{
 OFFSET 0.000000 0.000000 0.000000
 CHANNELS 6 Xposition Yposition Zposition Yrotation Xrotation Zrotation
 JOINT Chest
 {
  OFFSET 0.000000 9.585900 0.002600
  CHANNELS 3 Yrotation Xrotation Zrotation
  JOINT Chest2
  {
   OFFSET 0.000000 9.601200 -0.005300
   CHANNELS 3 Yrotation Xrotation Zrotation
   JOINT Chest3
   {
    OFFSET 0.000000 9.561800 0.000000
    CHANNELS 3 Yrotation Xrotation Zrotation
    JOINT Chest4
    {
     OFFSET 0.000000 9.552100 0.000000
     CHANNELS 3 Yrotation Xrotation Zrotation
     JOINT Neck
     {
      OFFSET 0.000000 14.453000 0.000000
      CHANNELS 3 Yrotation Xrotation Zrotation
      JOINT Head
      {
       OFFSET 0.000000 8.936500 -0.011300
       CHANNELS 3 Yrotation Xrotation Zrotation
       End Site
       {
        OFFSET 0.000000 17.073600 -0.006000
       }
      }
     }
     JOINT RightCollar
     {
      OFFSET -2.921100 9.558500 0.000000
      CHANNELS 3 Yrotation Xrotation Zrotation
      JOINT RightShoulder
      {
       OFFSET -13.519700 0.000000 0.000000
       CHANNELS 3 Yrotation Xrotation Zrotation
       JOINT RightElbow
       {
        OFFSET 0.000000 -29.696600 0.000000
        CHANNELS 3 Yrotation Xrotation Zrotation
        JOINT RightWrist
        {
         OFFSET 0.000000 -24.004700 0.000000
         CHANNELS 3 Yrotation Xrotation Zrotation
         End Site
         {
          OFFSET 0.000000 -17.728500 0.000000
         }
        }
       }
      }
     }
     JOINT LeftCollar
     {
      OFFSET 2.921100 9.558500 0.000000
      CHANNELS 3 Yrotation Xrotation Zrotation
      JOINT LeftShoulder
      {
       OFFSET 13.519700 0.000000 0.000000
       CHANNELS 3 Yrotation Xrotation Zrotation
       JOINT LeftElbow
       {
        OFFSET 0.000000 -29.696600 0.000000
        CHANNELS 3 Yrotation Xrotation Zrotation
        JOINT LeftWrist
        {
         OFFSET 0.000000 -24.004700 0.000000
         CHANNELS 3 Yrotation Xrotation Zrotation
         End Site
         {
          OFFSET 0.000000 -17.728500 0.000000
         }
        }
       }
      }
     }
    }
   }
  }
 }
 JOINT RightHip
 {
  OFFSET -7.771700 -0.012900 -0.001300
  CHANNELS 3 Yrotation Xrotation Zrotation
  JOINT RightKnee
  {
   OFFSET 0.000000 -40.869800 0.001200
   CHANNELS 3 Yrotation Xrotation Zrotation
   JOINT RightAnkle
   {
    OFFSET 0.000000 -39.717900 0.002100
    CHANNELS 3 Yrotation Xrotation Zrotation
    JOINT RightToe
    {
     OFFSET 0.000000 -4.965400 11.033500
     CHANNELS 3 Yrotation Xrotation Zrotation
     End Site
     {
      OFFSET 0.000000 -1.423100 5.872300
     }
    }
   }
  }
 }
 JOINT LeftHip
 {
  OFFSET 7.771700 -0.012900 -0.001300
  CHANNELS 3 Yrotation Xrotation Zrotation
  JOINT LeftKnee
  {
   OFFSET 0.000000 -40.869800 0.001200
   CHANNELS 3 Yrotation Xrotation Zrotation
   JOINT LeftAnkle
   {
    OFFSET 0.000000 -39.717900 0.002100
    CHANNELS 3 Yrotation Xrotation Zrotation
    JOINT LeftToe
    {
     OFFSET 0.000000 -4.965400 11.033500
     CHANNELS 3 Yrotation Xrotation Zrotation
     End Site
     {
      OFFSET 0.000000 -1.423100 5.872300
     }
    }
   }
  }
 }
}
MOTION
Frames: 8
Frame Time: 0.008333
-131.708853 51.748224 -55.125554 176.396383 -19.299417 0.347163 -2.519444 12.325183 -0.500442 -0.194115 0.941162 0.025947 -0.330915 1.605218 0.042263 -2.381290 11.250068 0.086434 -2.228484 17.732832 -1.320869 -2.040541 -7.045739 -0.885409 1.637772 15.619000 6.540803 19.828387 -7.076368 -26.763067 175.183318 -44.329114 147.408217 -2.311861 1.890045 -40.139352 0.785673 14.563271 -11.551522 -27.302991 0.606571 29.579685 143.516919 -57.163510 -116.246248 17.830220 8.022454 12.457169 -14.424346 -63.043152 8.129328 -82.775102 82.005951 -90.888167 -4.122543 -7.786855 5.915721 0.243649 -0.796193 0.124930 13.018187 -61.115897 -9.944160 31.728889 85.229656 36.953795 -2.794553 -12.530715 1.330514 0.117690 0.417126 0.057824
-131.711773 51.748983 -55.130490 176.423328 -19.293571 0.356019 -2.508109 12.321515 -0.502837 -0.214076 0.939450 0.022780 -0.305550 1.601087 0.046392 -2.313325 11.233721 0.106194 -2.246352 17.741657 -1.313132 -2.091394 -7.036131 -0.873219 1.594049 15.622366 6.541080 19.851581 -7.069244 -26.750211 175.264542 -44.371773 147.363060 -2.328876 1.900440 -40.106220 0.704747 14.546851 -11.532992 -27.300876 0.602592 29.602766 143.679451 -57.231313 -116.387914 17.804924 8.026105 12.522054 -14.408437 -63.054072 8.094760 -82.810358 82.003088 -90.925837 -4.149956 -7.747590 5.895257 0.274265 -0.834741 0.146801 13.038903 -61.117130 -9.985660 31.695199 85.233326 36.916805 -2.813681 -12.540378 1.332290 0.136725 0.425481 0.066374
-131.712536 51.748970 -55.133133 176.416609 -19.273418 0.358982 -2.480301 12.302237 -0.494739 -0.214526 0.939152 0.022363 -0.289603 1.596598 0.049658 -2.263349 11.218388 0.119716 -2.235043 17.748352 -1.302083 -2.082040 -7.029214 -0.864125 1.626838 15.609240 6.555975 19.856517 -7.053670 -26.732742 175.303497 -44.422986 147.336475 -2.345598 1.912539 -40.067281 0.645708 14.531076 -11.507105 -27.297661 0.606365 29.625530 143.855429 -57.301408 -116.536241 17.772414 8.033547 12.575894 -14.395923 -63.072375 8.105404 -82.853884 82.006224 -90.988034 -4.124686 -7.794504 5.926161 0.224978 -0.796260 0.134415 13.076422 -61.132521 -10.008312 31.643128 85.238055 36.868935 -2.805845 -12.531231 1.338129 0.126754 0.412742 0.063226
-131.715348 51.749778 -55.138340 176.452331 -19.268738 0.357645 -2.493533 12.296959 -0.496260 -0.190049 0.936495 0.026906 -0.323842 1.597593 0.043949 -2.240571 11.211238 0.125721 -2.194054 17.746005 -1.291660 -2.054499 -7.023879 -0.858339 1.669899 15.594827 6.565824 19.886648 -7.043821 -26.719149 175.345564 -44.466509 147.319370 -2.358604 1.922251 -40.018845 0.638176 14.507331 -11.477845 -27.300291 0.620363 29.637078 144.061705 -57.373920 -116.710258 17.736336 8.045973 12.614385 -14.381202 -63.077062 8.081142 -82.874897 81.989335 -91.009003 -4.178701 -7.755913 5.918976 0.279696 -0.831648 0.155197 13.087976 -61.133244 -10.040929 31.523368 85.247238 36.745155 -2.819358 -12.546867 1.347957 0.135836 0.427108 0.069577
-131.715586 51.748871 -55.138626 176.445667 -19.233751 0.349335 -2.443972 12.263582 -0.467487 -0.150923 0.932267 0.037425 -0.357952 1.594947 0.035193 -2.205295 11.195172 0.138119 -2.238821 17.761776 -1.290586 -2.012964 -7.023116 -0.855621 1.618601 15.607236 6.566569 19.972204 -7.041299 -26.713932 175.370852 -44.509636 147.311065 -2.363463 1.926697 -39.963410 0.585387 14.498120 -11.451370 -27.303576 0.638002 29.651133 144.269286 -57.441470 -116.886987 17.704201 8.061944 12.639628 -14.406131 -63.107938 8.121573 -82.890561 81.987633 -91.025680 -4.161530 -7.799225 5.926156 0.257585 -0.792595 0.134143 13.118067 -61.168067 -10.046870 31.474966 85.252413 36.693126 -2.810233 -12.538660 1.363241 0.118075 0.416216 0.064070
-131.721620 51.749964 -55.145091 176.479823 -19.236218 0.360379 -2.407938 12.268903 -0.457521 -0.194237 0.928758 0.026737 -0.303205 1.585054 0.047276 -2.210135 11.184886 0.140607 -2.284262 17.774611 -1.288010 -1.972411 -7.022285 -0.852340 1.609470 15.601954 6.577288 20.015795 -7.031535 -26.701335 175.387330 -44.548867 147.310978 -2.358253 1.924799 -39.907649 0.531813 14.486992 -11.423744 -27.302648 0.659202 29.664873 144.477924 -57.503204 -117.072652 17.684514 8.076899 12.657156 -14.370828 -63.112809 8.065420 -82.960472 81.986061 -91.101801 -4.198536 -7.762054 5.922471 0.286965 -0.833404 0.150099 13.160428 -61.158226 -10.107372 31.376266 85.260728 36.591218 -2.833453 -12.548711 1.374845 0.135731 0.423872 0.073489
-131.727523 51.750316 -55.149529 176.502779 -19.226546 0.369366 -2.413678 12.260148 -0.466846 -0.203561 0.927484 0.025628 -0.269508 1.582162 0.052424 -2.188601 11.174721 0.149007 -2.277498 17.779017 -1.277497 -1.986051 -7.017420 -0.843689 1.616242 15.589206 6.592440 20.055592 -7.024529 -26.689534 175.395226 -44.587020 147.321773 -2.348177 1.920422 -39.854678 0.493792 14.467865 -11.393939 -27.295016 0.684403 29.677563 144.676924 -57.555649 -117.261105 17.677776 8.085292 12.668980 -14.337906 -63.126541 8.025984 -83.031147 81.981467 -91.180384 -4.214743 -7.772374 5.931351 0.293309 -0.830603 0.153841 13.208665 -61.161270 -10.152954 31.381970 85.260097 36.576609 -2.854263 -12.545922 1.412408 0.126960 0.420380 0.067368
-131.730963 51.750166 -55.152529 176.521443 -19.209678 0.360433 -2.410371 12.244958 -0.456564 -0.181751 0.926465 0.028552 -0.268285 1.579805 0.056021 -2.200267 11.170179 0.149129 -2.169843 17.771247 -1.253983 -2.102518 -7.001779 -0.826601 1.612495 15.584223 6.598654 20.134831 -7.032089 -26.684490 175.394757 -44.629890 147.342494 -2.309764 1.904776 -39.863058 0.487365 14.440854 -11.363420 -27.276204 0.710033 29.691011 144.845920 -57.591199 -117.436064 17.675715 8.083530 12.674198 -14.296515 -63.144793 8.004698 -83.092449 81.964623 -91.233825 -4.242291 -7.769161 5.938298 0.310598 -0.835378 0.164248 13.240648 -61.175104 -10.184719 31.314530 85.264741 36.517607 -2.866829 -12.549741 1.423451 0.135423 0.423987 0.068204
